<?xml version="1.0" encoding="UTF-8"?>
<svg xmlns="http://www.w3.org/2000/svg" width="152" height="152" viewBox="0 0 152 152" fill="none"><defs><linearGradient id="grad" x1="0" y1="0" x2="1" y2="1"><stop offset="0%" stop-color="#2563eb"></stop><stop offset="100%" stop-color="#9333ea"></stop></linearGradient><filter id="drop-shadow" x="-20%" y="-20%" width="140%" height="140%"><feDropShadow dx="0" dy="4" stdDeviation="3" flood-color="rgba(0,0,0,0.15)"></feDropShadow></filter></defs><rect width="152" height="152" rx="41.5625" fill="url(#grad)" filter="url(#drop-shadow)"></rect><g transform="translate(23.75, 29.6875) scale(0.178125)"><path fill="white" d="M304 240l0-223.4c0-9 7-16.6 16-16.6C443.7 0 544 100.3 544 224c0 9-7.6 16-16.6 16L304 240zM32 272C32 150.7 122.1 50.3 239 34.3c9.2-1.3 17 6.1 17 15.4L256 288 412.5 444.5c6.7 6.7 6.2 17.7-1.5 23.1C371.8 495.6 323.8 512 272 512C139.5 512 32 404.6 32 272zm526.4 16c9.3 0 16.6 7.8 15.4 17c-7.7 55.9-34.6 105.6-73.9 142.3c-6 5.6-15.4 5.2-21.2-.7L320 288l238.4 0z"></path></g></svg>